PathFileType	4	(X/Y/Z)	C:\Users\WrightLab\Desktop\Jo\P5V120.trc
DataRate	CameraRate	NumFrames	NumMarkers	Units	OrigDataRate	OrigDataStartFrame	OrigNumFrames
100.00	100.00	       15	19	mm	100.00	316	       630
Frame#	Time	Headset_Front			Headset_Back			Headset_Left			Headset_Right			Left_Shoulder			Right_Shoulder			Sternum			C7			Left Elbow			Right Elbow			Left Wrist			Right Wrist			Left ASIS			Right ASIS			S2			Left Knee			Right Knee			Left Ankle			Right Ankle			
		X1	Y1	Z1	X2	Y2	Z2	X3	Y3	Z3	X4	Y4	Z4	X5	Y5	Z5	X6	Y6	Z6	X7	Y7	Z7	X8	Y8	Z8	X9	Y9	Z9	X10	Y10	Z10	X11	Y11	Z11	X12	Y12	Z12	X13	Y13	Z13	X14	Y14	Z14	X15	Y15	Z15	X16	Y16	Z16	X17	Y17	Z17	X18	Y18	Z18	X19	Y19	Z19	

316	3.150	295.17123	1373.49695	-65.71701	344.90695	1667.32727	38.75278	225.13213	1534.61523	53.95164	414.28323	1467.42236	-66.67458	228.87732	1380.53601	127.89720	604.36646	1499.30750	170.37726	499.53204	1277.32141	127.20551	387.44922	1506.20569	264.56696	82.26516	1152.50342	80.24501	791.66107	1338.88953	310.73358	-38.77368	1018.00104	-89.34231	832.76373	1156.22083	164.54289	452.43729	905.82739	171.79655	710.71875	992.44189	241.01756	487.89694	1008.04565	443.49030	433.47928	506.10336	115.53139	746.15424	517.09692	354.72296	420.59958	105.88667	155.74704	649.04468	123.64111	509.10962	
317	3.160	293.14609	1373.08569	-69.45848	343.03778	1667.14661	34.38195	224.45912	1534.27234	49.70627	412.32626	1467.50903	-71.33958	227.11195	1379.66321	124.57783	603.31543	1499.26172	165.64777	497.66403	1277.81274	121.57727	386.91846	1506.47302	259.87204	81.47144	1150.82068	76.97926	791.09320	1338.36987	304.22159	-39.16894	1015.35059	-91.25581	831.76776	1156.17505	157.47762	451.19046	905.28699	165.68568	708.97620	992.01837	234.22290	486.54099	1007.61749	436.80417	430.65326	504.94312	111.47499	745.13000	515.76776	348.94659	419.75229	105.29446	153.66106	649.24030	124.49740	508.30621	
318	3.170	290.65274	1372.93506	-72.95128	341.20816	1667.10706	30.18982	221.65329	1534.72021	46.37115	409.90530	1467.62622	-76.20341	225.48520	1379.39624	120.62963	602.33032	1499.38892	160.05084	496.44305	1278.02136	115.85580	385.81448	1506.61414	255.44864	81.29654	1149.36902	74.44989	790.58063	1337.85498	297.43588	-39.46898	1012.93219	-93.11721	830.32843	1155.90710	150.47133	449.64404	904.65826	159.86786	707.12494	992.04675	226.88637	485.97162	1006.40558	429.83234	428.80331	504.01108	106.67383	743.78894	514.53381	342.11804	419.28619	105.14373	153.67450	649.08698	125.50719	507.61417	
319	3.180	288.46835	1373.24805	-76.95205	339.46976	1667.30200	25.67593	219.87238	1534.85730	42.55833	407.80200	1467.94360	-80.37651	224.18817	1379.21985	116.70779	601.23975	1500.16321	155.11917	494.46609	1278.93591	109.62654	385.08569	1506.64709	250.84239	80.66978	1147.68494	72.67176	789.70996	1337.88806	290.99173	-39.71603	1010.54236	-94.18320	828.67603	1155.80835	143.56328	448.43326	903.99133	154.34268	705.29700	992.14453	220.51210	483.78781	1006.62433	423.88965	426.87503	504.90472	101.44403	742.29346	513.33344	335.58588	418.56635	104.87643	153.29358	649.06848	126.61964	506.88065	
320	3.190	286.64075	1373.33301	-81.06117	337.99902	1667.52625	21.05861	218.02277	1535.26062	38.86616	405.64685	1468.21252	-85.73159	223.16580	1379.34814	112.67493	600.44116	1501.31006	149.12268	493.17627	1279.70691	103.93643	384.99554	1506.62097	246.27701	81.50794	1146.55554	70.20454	788.65149	1338.07874	283.74673	-39.93692	1008.70007	-95.72404	827.03229	1156.08228	136.65900	447.10587	903.91217	149.56670	703.17029	992.67200	213.38733	481.55280	1006.82141	417.20334	425.10452	505.48660	95.86555	740.46307	512.53168	328.36032	417.74298	104.62067	153.12706	649.26440	128.01743	506.19519	
321	3.200	284.75974	1373.61279	-84.89886	336.38336	1668.04297	16.77662	216.80464	1535.48547	35.16759	403.44522	1468.06567	-88.93102	221.73694	1379.30408	109.80747	599.66162	1501.57751	143.33835	491.90607	1279.99329	98.89233	384.47281	1507.18616	241.90904	80.61304	1146.55811	67.14802	787.81866	1337.74158	278.02133	-39.66192	1006.50757	-96.83489	825.02496	1156.06152	129.67966	445.34647	904.63477	144.21864	701.07996	992.90814	207.21968	479.64886	1007.38177	410.98215	423.39066	505.88678	90.08409	738.96338	511.65924	321.23068	417.16370	104.38194	153.07108	649.62476	129.56439	505.62723	
322	3.210	282.90375	1373.92688	-88.51002	334.94641	1668.45313	12.34337	215.59029	1535.93726	31.55493	401.91574	1468.21814	-93.39624	220.80429	1379.68665	106.16678	599.14630	1502.56458	137.63342	490.66083	1280.68164	93.00814	383.60223	1507.70032	237.45836	81.61330	1144.82739	64.95662	786.77936	1337.73193	271.71378	-39.86897	1004.93481	-97.91737	823.65918	1156.58362	123.23228	443.80908	905.24713	138.62964	698.90784	993.36462	200.77771	479.07867	1007.72321	404.32260	421.11087	505.90875	85.39909	737.60852	510.66211	313.90823	416.58246	103.61970	152.80579	649.72052	131.22733	504.56018	
323	3.220	280.64188	1374.30750	-91.56168	333.43982	1669.19763	7.96227	213.97626	1536.52600	28.38527	399.55566	1468.75269	-98.00164	220.27644	1379.82593	102.51317	598.74152	1503.49768	131.33316	490.07822	1281.39807	87.53289	383.62479	1508.11401	233.08287	81.51435	1144.53613	63.53104	786.72064	1338.09338	265.33505	-39.87091	1003.53162	-99.01588	822.00995	1156.91614	116.35477	441.14612	906.81213	133.28618	696.69055	993.45917	194.75623	477.31140	1008.76898	398.99741	418.43463	506.19229	81.11215	735.80762	509.85818	306.43182	416.15128	103.13798	152.51703	650.10962	132.99504	503.72211	
324	3.230	278.61243	1375.21765	-95.50488	332.17142	1669.78333	3.73496	212.62297	1537.42200	25.11243	397.81073	1469.54102	-101.93253	219.77325	1380.63818	99.51603	597.89740	1503.94458	126.08457	489.84930	1282.06445	82.47198	384.49283	1508.70398	228.27150	81.46819	1144.19397	62.00552	786.70422	1338.57202	259.65948	-39.86714	1001.84247	-100.26337	820.35138	1157.45093	109.66499	438.97739	907.35901	128.19182	694.60559	993.87219	187.79758	476.20834	1009.70813	393.51932	415.09363	505.94080	77.37594	733.91541	508.66824	299.76974	415.58670	102.98889	152.53654	650.56055	135.11478	502.26709	
325	3.240	276.80688	1375.99878	-99.34956	331.04160	1670.53381	-0.46029	211.52596	1538.23120	21.69988	395.23532	1470.31885	-106.95070	218.41132	1381.47717	96.76728	597.51379	1504.55164	120.26958	488.70413	1282.85400	77.03815	384.67093	1509.52905	223.86649	81.75682	1143.81104	59.95928	786.69220	1339.01855	253.30336	-39.90871	1000.31763	-101.17089	819.38647	1157.90002	103.02854	436.96024	908.78149	120.98315	692.24396	994.09589	181.46280	475.39801	1010.79736	387.97043	411.72424	505.70456	75.10077	732.30096	508.18765	291.82623	415.41473	102.93089	152.47287	651.18024	137.97923	500.91727	
326	3.250	274.94269	1376.54663	-102.87182	330.06485	1671.10779	-4.51661	210.49237	1539.11328	18.32373	393.23416	1471.07654	-112.18524	217.99973	1382.19141	93.45747	596.98462	1505.03186	114.96203	487.44354	1283.73376	71.88744	384.25110	1510.68848	219.74763	81.70393	1143.49475	58.36823	786.56445	1339.48499	247.81517	-39.87926	999.22076	-102.18245	817.54614	1158.62598	96.62130	433.59515	909.68970	116.67849	690.24683	993.97778	174.57277	475.12244	1011.05121	383.00510	408.81595	505.01886	73.01377	730.43433	507.50534	283.72812	415.36932	102.85007	152.46022	651.86523	141.23343	499.31686	
327	3.260	273.29517	1377.32410	-106.63724	329.01248	1672.29419	-8.75546	209.75906	1540.01416	14.91549	391.88882	1471.87854	-116.08813	217.43633	1383.02515	90.08430	596.50031	1505.60022	108.75121	486.59921	1284.32800	66.88672	384.95270	1511.57666	215.54739	82.71658	1143.28345	57.55981	786.77856	1339.96252	241.46985	-39.99953	998.09192	-102.58125	816.39026	1159.27234	89.60209	430.03723	910.75415	111.59515	687.80646	993.86688	168.28636	474.63168	1012.27075	377.04306	405.38931	504.05197	72.22034	729.32568	506.79706	276.19208	415.40677	102.78218	152.39171	652.57867	144.64375	496.88577	
328	3.270	271.66296	1378.25842	-110.01775	328.31494	1673.27991	-13.02442	210.33475	1540.87183	10.75045	390.54083	1472.84790	-121.10055	216.56114	1383.74890	87.44353	596.38025	1505.67517	103.71570	485.96478	1284.80969	61.93359	384.88013	1512.87512	211.41531	82.09576	1143.33240	55.02750	787.15717	1340.24646	235.71814	-39.62458	996.87042	-103.24053	814.76202	1159.72327	83.58669	426.39261	911.82684	107.15813	685.33252	993.86877	161.19563	474.08127	1012.93848	374.01370	402.00772	503.52817	71.00079	727.64819	506.39392	268.25592	415.55209	102.76138	152.30458	653.20538	148.32358	493.80817	
329	3.280	270.34805	1379.06604	-113.91995	327.74362	1674.08191	-17.08643	210.15953	1541.87793	7.00893	388.84439	1473.40845	-125.40503	216.47148	1384.30188	84.66745	596.04602	1505.88440	98.08747	484.97644	1285.45483	57.35831	385.34903	1513.68750	207.14671	82.18097	1143.34961	53.39621	786.83441	1340.54797	228.66187	-39.52352	996.04639	-103.87441	813.32581	1160.15955	77.14318	423.58527	911.74225	102.40497	683.29993	993.35199	154.19897	473.97025	1014.02313	368.72577	398.56818	502.44812	70.54044	726.75537	506.16809	260.67017	416.03500	102.51820	152.33034	653.81854	151.94368	490.44553	
330	3.290	268.98035	1380.18274	-117.81956	327.38867	1674.82935	-21.20965	209.15158	1543.07617	3.65144	387.72382	1473.81885	-128.86295	215.95442	1384.78552	81.20924	595.72180	1506.35718	92.11227	483.82181	1286.30615	52.62241	386.11957	1514.63464	202.59634	82.46898	1143.29590	51.18977	787.30652	1340.90955	222.76682	-39.55652	995.13831	-104.72942	811.94843	1160.63892	70.17357	420.37839	911.87756	97.33807	680.94312	993.23022	147.25166	473.13342	1014.78546	363.81323	395.32080	501.55249	70.55779	726.01099	506.24323	251.97292	416.28284	102.58357	152.20203	654.36102	156.81464	487.18344	
